<?xml version="1.0" standalone="no"?>
<!DOCTYPE svg PUBLIC "-//W3C//DTD SVG 20010904//EN"
 "http://www.w3.org/TR/2001/REC-SVG-20010904/DTD/svg10.dtd">
<svg version="1.0" xmlns="http://www.w3.org/2000/svg"
 width="1426.0pt" height="1117.0pt" viewBox="0 0 1426.0 1117.0"
 preserveAspectRatio="xMidYMid meet">
<metadata>
</metadata>
<g transform="translate(-43000.0,1117.0) scale(0.1,-0.1)"
fill="#104385" stroke="none">
<path d="M5167 11152 c-31 -34 -21 -67 41 -135 31 -35 338 -367 682 -738 343
-371 743 -802 889 -959 145 -157 274 -295 288 -307 36 -34 78 -30 117 10 54
56 1777 1894 1869 1994 62 68 73 106 39 136 -17 16 -168 17 -1964 17 -1871 0
-1946 -1 -1961 -18z"/>
<path d="M16 10558 c-14 -20 -16 -537 -16 -5275 0 -4761 1 -5253 16 -5267 14
-15 674 -16 7110 -16 4872 0 7101 3 7115 10 19 11 19 81 19 5274 0 5086 -1
5263 -18 5279 -17 16 -213 17 -2623 17 -1432 0 -2609 -4 -2615 -8 -11 -8 -62
-62 -1067 -1152 -796 -863 -794 -860 -816 -860 -9 0 -24 6 -33 13 -9 6 -165
176 -348 377 -183 201 -594 650 -912 998 l-579 632 -2609 0 -2609 0 -15 -22z
m5409 -549 c160 -176 324 -355 365 -397 80 -82 671 -727 780 -851 371 -423
399 -446 550 -446 150 0 176 21 585 481 106 119 671 729 750 810 39 39 205
218 370 398 l300 326 2448 0 2447 0 0 -5045 0 -5045 -6890 0 -6890 0 0 5045 0
5045 2448 -1 2447 0 290 -320z"/>
<path d="M4370 4181 c-5 -11 -10 -27 -10 -35 0 -9 93 -116 208 -239 114 -122
265 -287 337 -365 71 -78 137 -145 147 -148 10 -3 24 -2 32 3 8 5 166 170 350
368 293 314 336 364 336 391 0 20 -6 34 -16 38 -9 3 -321 6 -694 6 -661 0
-680 -1 -690 -19z"/>
<path d="M9613 3399 c-280 -36 -569 -210 -720 -434 -198 -293 -255 -705 -148
-1069 67 -231 221 -445 414 -575 210 -143 470 -207 739 -182 263 24 460 109
625 270 145 140 234 325 262 537 11 87 18 85 -297 82 -229 -3 -272 -5 -279
-18 -4 -8 -15 -46 -25 -84 -31 -125 -132 -236 -247 -272 -123 -38 -285 -26
-390 28 -115 58 -210 210 -249 395 -36 175 -15 408 52 555 11 26 20 51 20 54
-1 4 4 10 12 15 7 5 13 12 13 16 0 19 60 84 108 117 129 88 310 106 471 46 99
-37 196 -146 220 -245 14 -56 7 -55 297 -55 333 0 319 -8 279 156 -60 251
-205 420 -475 557 -90 45 -249 94 -345 107 -88 11 -249 11 -337 -1z"/>
<path d="M1252 3348 c-17 -17 -18 -2138 0 -2156 17 -17 499 -17 516 0 9 9 12
203 13 807 l0 796 139 -500 c324 -1164 305 -1101 326 -1109 9 -3 107 -6 219
-6 155 0 205 3 213 13 6 7 18 38 26 68 28 106 58 216 91 329 59 205 307 1104
310 1125 1 11 7 31 13 45 8 18 11 -195 11 -762 1 -701 3 -788 17 -802 13 -14
51 -16 258 -16 193 0 246 3 255 14 8 10 10 302 9 1087 l-3 1074 -411 3 c-322
2 -414 -1 -422 -10 -10 -13 -60 -197 -182 -673 -199 -770 -193 -750 -197 -739
-1 5 -43 169 -94 364 -85 333 -120 466 -220 850 -22 85 -46 166 -52 180 l-13
25 -405 3 c-306 2 -408 -1 -417 -10z"/>
<path d="M4110 3341 c-14 -27 -13 -1267 1 -1421 14 -154 41 -256 95 -367 79
-159 205 -274 374 -342 157 -62 402 -91 625 -72 459 39 714 255 792 674 13 67
16 208 20 794 3 508 1 718 -7 732 -10 20 -18 21 -284 21 -213 0 -276 -3 -284
-13 -8 -9 -12 -234 -14 -733 -3 -715 -3 -719 -25 -773 -48 -116 -109 -171
-222 -197 -102 -25 -251 -14 -326 23 -60 30 -114 94 -131 155 -9 32 -20 58
-25 58 -5 0 -6 7 -3 15 3 8 3 19 0 24 -4 5 -6 325 -6 710 0 625 -1 701 -16
715 -13 14 -52 16 -284 16 -256 0 -270 -1 -280 -19z"/>
<path d="M6442 3348 c-9 -9 -12 -262 -12 -1076 0 -1002 1 -1066 18 -1078 21
-16 487 -20 512 -4 13 8 16 97 20 665 l5 657 230 -414 c126 -227 246 -440 266
-473 20 -33 83 -143 139 -245 56 -102 108 -188 114 -192 20 -14 561 -9 574 4
17 17 17 2139 0 2156 -17 17 -499 17 -516 0 -9 -9 -12 -170 -12 -662 l0 -651
-26 50 c-51 94 -537 951 -631 1113 l-96 162 -286 0 c-210 0 -290 -3 -299 -12z"/>
<path d="M11143 3353 c-10 -4 -13 -228 -13 -1075 0 -1008 1 -1072 18 -1084 22
-17 512 -20 543 -4 18 10 19 26 19 433 0 316 3 426 12 435 17 17 699 17 716 0
9 -9 12 -119 12 -433 0 -314 3 -424 12 -433 17 -17 529 -17 546 0 17 17 17
2139 0 2156 -17 17 -529 17 -546 0 -9 -9 -12 -107 -12 -380 l0 -368 -24 -15
c-35 -23 -692 -18 -706 5 -6 9 -10 168 -10 380 0 271 -3 369 -12 378 -9 9 -83
12 -277 11 -147 0 -272 -3 -278 -6z"/>
</g>
</svg>
